<svg version="1.0" xmlns="http://www.w3.org/2000/svg" width="9981.333" height="10978.667" viewBox="0 0 7486 8234" aria-labelledby="Bennetts--logo"><path d="M1128 1771.5V2663h455v2934h-455l.2 876.2.3 876.3 2115.5.3 2115.5.2 498.7-498.7 498.8-498.8V4024.4l-59-51.9c-32.4-28.6-58.9-52.5-58.7-53.1.1-.6 26.6-23.8 59-51.5l58.7-50.3V1861.5l-490.8-490.8L5375.5 880H1128v891.5zm4562.7-229.3 420.3 420.3v1742.2l-123.5 105.8c-68 58.1-123.5 106.1-123.3 106.5.2.5 55.8 49.7 123.6 109.5l123.2 108.7v2115.3l-426.2 426.2-426.3 426.3H1374V5843h455V2417h-455V1122h3896.5l420.2 420.2z"/><path d="M3106 2830v445h1311.7l222.2-223.2c122.2-122.7 222-223.6 221.8-224.1-.1-.5-103.1-100.3-228.7-221.8L4404.5 2385H3106v445zm1302.5-99.3c56.7 54.7 103.2 100 103.4 100.5s-43.9 45.2-98 99.4l-98.3 98.4H3352v-398h476.8l476.7.1 103 99.6zm-1281.8 1803c-.4.3-.7 293.5-.7 651.5V5836h1271.5l216.3-216.3 216.2-216.2v-435l-217.8-217.8-217.7-217.7h-633.6c-348.5 0-633.9.3-634.2.7zm1311 390.5 145.3 145.3v233l-143.7 143.7-143.8 143.8H3372v-811h920.5l145.2 145.2z"/></svg>