<svg xmlns="http://www.w3.org/2000/svg" width="64" height="64" viewBox="0 0 64 64"><path d="M3 5.879c-1.652 0-3 1.348-3 3v42c0 1.652 1.348 3 3 3h36.988C42.29 57.547 46.36 60 51 60c7.168 0 13-5.832 13-13 0-5.398-3.309-10.031-8-11.996V8.879c0-1.652-1.348-3-3-3Zm0 2h50c.55 0 1 .45 1 1v7H2v-7c0-.55.45-1 1-1Zm2 2a1 1 0 0 0-1 1v2a1 1 0 1 0 2 0v-2a1 1 0 0 0-1-1Zm5 0a1 1 0 0 0-1 1v2a1 1 0 1 0 2 0v-2a1 1 0 0 0-1-1Zm5 0a1 1 0 0 0-1 1v2a1 1 0 1 0 2 0v-2a1 1 0 0 0-1-1Zm5 0a1 1 0 0 0-1 1v2a1 1 0 1 0 2 0v-2a1 1 0 0 0-1-1Zm5 0a1 1 0 0 0-1 1v2a1 1 0 1 0 2 0v-2a1 1 0 0 0-1-1Zm5 0a1 1 0 0 0-1 1v2a1 1 0 1 0 2 0v-2a1 1 0 0 0-1-1Zm5 0a1 1 0 0 0-1 1v2a1 1 0 1 0 2 0v-2a1 1 0 0 0-1-1Zm5 0a1 1 0 0 0-1 1v2a1 1 0 1 0 2 0v-2a1 1 0 0 0-1-1Zm5 0a1 1 0 0 0-1 1v2a1 1 0 1 0 2 0v-2a1 1 0 0 0-1-1Zm5 0a1 1 0 0 0-1 1v2a1 1 0 1 0 2 0v-2a1 1 0 0 0-1-1Zm-48 8h52v16.484A12.873 12.873 0 0 0 51 34c-7.168 0-13 5.832-13 13 0 1.727.344 3.371.957 4.879H3c-.55 0-1-.45-1-1ZM11 22a1 1 0 0 0-1 1v5H7a1 1 0 1 0 0 2h3v10H7.25a1 1 0 1 0 0 2H10v5a1 1 0 1 0 2 0v-5h16v5a1 1 0 1 0 2 0v-5h7.168a1 1 0 1 0 0-2H30V30h14v3a1 1 0 1 0 2 0v-3h2.918a1 1 0 1 0 0-2H46v-5a1 1 0 1 0-2 0v5H30v-5a1 1 0 1 0-2 0v5H12v-5a1 1 0 0 0-1-1Zm1 8h16v10H12Zm39 6c6.066 0 11 4.934 11 11s-4.934 11-11 11-11-4.934-11-11 4.934-11 11-11Zm0 3a1 1 0 0 0-1 1v7a1.001 1.001 0 0 0 .297.707l4.996 5c.195.195.45.293.707.293a1 1 0 0 0 .707-1.707L52 46.586V40a1 1 0 0 0-1-1Z"/></svg>