<svg xmlns="http://www.w3.org/2000/svg" width="30" height="30" viewBox="0 0 30 30"><path d="M15 3C8.385 3 3 8.385 3 15s5.385 12 12 12 12-5.385 12-12c0-4.14-2.102-7.8-5.3-9.957l1.146-1.47L18 3.395 19.398 8l1.063-1.365a9.97 9.97 0 0 1 4.484 7.367A1 1 0 0 0 24 15a1 1 0 0 0 .951.998 9.986 9.986 0 0 1-8.953 8.953A1 1 0 0 0 15 24a1 1 0 0 0-.998.951 9.986 9.986 0 0 1-8.953-8.953A1 1 0 0 0 6 15a1 1 0 0 0-.951-.998A9.985 9.985 0 0 1 15 5a1 1 0 1 0 0-2zm-.016 4.986A1 1 0 0 0 14 9v5.5l-3.6 2.7a1 1 0 0 0 1.2 1.6l4-3a1 1 0 0 0 .4-.8V9a1 1 0 0 0-1.016-1.014z"/></svg>