<svg xmlns="http://www.w3.org/2000/svg" width="26" height="26" viewBox="0 0 26 26"><path d="M8.125 3.875c-1.727 0-3.297.598-4.406 1.688C2.609 6.652 2 8.21 2 10c0 3.027 1.855 5.285 3.969 7.188 2.113 1.902 4.578 3.585 6.25 5.562.183.23.457.367.75.375h.062a.991.991 0 0 0 .75-.375c1.672-1.977 4.137-3.66 6.25-5.563C22.145 15.286 24 13.027 24 10c0-1.79-.64-3.348-1.75-4.438-1.11-1.09-2.648-1.687-4.375-1.687-1.71 0-3.113.934-4.094 1.781-.48.414-.504.528-.781.844-.273-.316-.3-.43-.781-.844-.977-.847-2.383-1.781-4.094-1.781Zm0 2c.941 0 1.992.629 2.781 1.313a9.555 9.555 0 0 1 1.281 1.343c.188.262.493.418.813.418.32 0 .625-.156.813-.418 0 0 .488-.66 1.28-1.344.794-.683 1.837-1.312 2.782-1.312 1.285 0 2.297.438 3 1.125.703.688 1.125 1.66 1.125 3 0 2.215-1.34 3.91-3.313 5.688-1.746 1.574-3.878 3.187-5.687 5.093-1.813-1.914-3.938-3.52-5.688-5.093C5.34 13.91 4 12.215 4 10c0-1.34.422-2.313 1.125-3 .703-.688 1.71-1.125 3-1.125Z"/></svg>