<svg xmlns="http://www.w3.org/2000/svg" width="24" height="24" viewBox="0 0 50 50"><path d="M25 7c-2.207 0-4 1.793-4 4s1.793 4 4 4 4-1.793 4-4-1.793-4-4-4ZM3 10c-.55 0-1 .45-1 1s.45 1 1 1h16.09a6.025 6.025 0 0 1-.09-1c0-.34.035-.676.09-1Zm27.91 0c.055.324.09.66.09 1 0 .34-.035.676-.09 1H47a1 1 0 1 0 0-2ZM39 21c-2.207 0-4 1.793-4 4s1.793 4 4 4 4-1.793 4-4-1.793-4-4-4ZM3 24c-.55 0-1 .45-1 1s.45 1 1 1h30.09a6.025 6.025 0 0 1-.09-1c0-.34.035-.676.09-1Zm41.91 0c.055.324.09.66.09 1 0 .34-.035.676-.09 1H47a1 1 0 1 0 0-2ZM14 35c-2.207 0-4 1.793-4 4s1.793 4 4 4 4-1.793 4-4-1.793-4-4-4ZM3 38a1 1 0 1 0 0 2h5.09A5.987 5.987 0 0 1 8 39c0-.344.035-.676.09-1Zm16.91 0c.055.324.09.656.09 1s-.035.676-.09 1H47c.555 0 1-.445 1-1 0-.555-.445-1-1-1Z"/></svg>