<svg xmlns="http://www.w3.org/2000/svg" width="30" height="30" viewBox="0 0 30 30"><path d="M8.65 2C7.74 2 7 2.74 7 3.65v15.38c-1.07.11-1.91.91-1.91 1.89 0 .63.34 1.22.9 1.59l7.33 4.7c.51.33 1.07.79 1.68.79.61 0 1.26-.46 1.78-.79l7.32-4.7c.57-.37.9-.96.9-1.59.01-.52-.22-1.01-.63-1.38-.34-.3-.88-.47-1.37-.53V3.65C23 2.74 22.26 2 21.35 2H8.65zm3.57 6c1.28 0 2.13.87 2.13 2.22 0 1.33-.85 2.22-2.13 2.22-1.28 0-2.13-.89-2.13-2.22 0-1.35.84-2.22 2.13-2.22zm4.63.21h2l-3.32 4.52-2.31 4.06h-2.01l3.26-4.5 2.38-4.08zm-4.63 1.07c-.37 0-.59.34-.59.93 0 .58.22.93.59.93.36 0 .58-.35.58-.93 0-.59-.21-.93-.58-.93zm5.57 3.28c1.28 0 2.12.88 2.12 2.22 0 1.35-.84 2.22-2.12 2.22-1.28 0-2.12-.87-2.12-2.22 0-1.34.84-2.22 2.12-2.22zm0 1.28c-.37 0-.59.35-.59.94s.22.93.59.93c.36 0 .58-.34.58-.93 0-.6-.21-.94-.58-.94z"/></svg>