<svg xmlns="http://www.w3.org/2000/svg" width="64" height="64" viewBox="0 0 64 64"><path d="M3 2C1.35 2 0 3.35 0 5s1.35 3 3 3c1.11 0 2.08-.61 2.61-1.51 1.56.75 2.69 2.29 2.83 4.12l2.79 35.26c.39 4.96 4.11 8.98 8.84 9.92A4.985 4.985 0 0 0 25 60a5 5 0 0 0 4.9-4h16.2c.47 2.28 2.49 4 4.9 4 2.76 0 5-2.24 5-5s-2.24-5-5-5c-2.41 0-4.43 1.72-4.9 4H29.9a5 5 0 0 0-9.74-.24c-2.98-.7-5.41-2.9-6.44-5.76H61c1.65 0 3-1.35 3-3s-1.35-3-3-3h-1V15.89c1.16-.42 2-1.53 2-2.83v-2c0-1.66-1.35-3-3-3H17c-1.65 0-3 1.34-3 3v2c0 1.3.84 2.41 2 2.83V42h-3.06l-2.51-31.55C10.22 7.7 8.4 5.41 5.95 4.47A3.006 3.006 0 0 0 3 2zm0 2c.55 0 1 .45 1 1s-.45 1-1 1-1-.45-1-1 .45-1 1-1zm14 6.06h42c.55 0 1 .45 1 1v2c0 .55-.45 1-1 1h-4c-.55 0-1 .44-1 1 0 .55.45 1 1 1h3v20c-.55 0-1 .44-1 1v2c0 .55.45 1 1 1V42H18v-1.94c.55 0 1-.45 1-1v-2c0-.56-.45-1-1-1v-20h25c.55 0 1-.45 1-1 0-.56-.45-1-1-1H17c-.55 0-1-.45-1-1v-2c0-.55.45-1 1-1zm30 3.997a1 1 0 1 0 0 2h4a1 1 0 1 0 0-2h-4zM33 18c-1.654 0-3 1.346-3 3s1.346 3 3 3h10c1.654 0 3-1.346 3-3s-1.346-3-3-3H33zm0 2h10a1.001 1.001 0 0 1 0 2H33a1.001 1.001 0 0 1 0-2zM23 36.057a1 1 0 0 0-1 1v2a1 1 0 1 0 2 0v-2a1 1 0 0 0-1-1zm5 0a1 1 0 0 0-1 1v2a1 1 0 1 0 2 0v-2a1 1 0 0 0-1-1zm5 0a1 1 0 0 0-1 1v2a1 1 0 1 0 2 0v-2a1 1 0 0 0-1-1zm5 0a1 1 0 0 0-1 1v2a1 1 0 1 0 2 0v-2a1 1 0 0 0-1-1zm5 0a1 1 0 0 0-1 1v2a1 1 0 1 0 2 0v-2a1 1 0 0 0-1-1zm5 0a1 1 0 0 0-1 1v2a1 1 0 1 0 2 0v-2a1 1 0 0 0-1-1zm5 0a1 1 0 0 0-1 1v2a1 1 0 1 0 2 0v-2a1 1 0 0 0-1-1zM13.09 44H61c.55 0 1 .45 1 1s-.45 1-1 1H13.26l-.03-.29-.14-1.71zM25 52a3 3 0 0 1 2.82 2c.12.31.18.65.18 1s-.06.69-.18 1A3 3 0 0 1 25 58a3 3 0 0 1-2.82-2c-.12-.31-.18-.65-.18-1s.06-.69.18-1A3 3 0 0 1 25 52zm26 0c1.65 0 3 1.35 3 3s-1.35 3-3 3-3-1.35-3-3 1.35-3 3-3z"/></svg>