<svg xmlns="http://www.w3.org/2000/svg" width="30" height="30" viewBox="0 0 24 24"><path d="M11.984 1.986A1 1 0 0 0 11 3v3H9.113a.611.611 0 0 0-.431 1.043l2.7 2.701a.873.873 0 0 0 1.235 0l2.701-2.701A.611.611 0 0 0 14.887 6H13V3a1 1 0 0 0-1.016-1.014zM4.012 5.293a1 1 0 0 0-.297.084L1.248 6.514A1 1 0 0 0 .93 8.1L3 10.348v6.365a2 2 0 0 0 1.096 1.783L11 21.998v-9.084l-6-2.8 2.969-1.358-3.123-3.172a1.001 1.001 0 0 0-.834-.291zm16.074.004a.999.999 0 0 0-.838.283l-3.187 3.188L19 10.113l-6 2.801V22l6.904-3.506A1.997 1.997 0 0 0 21 16.713v-6.365l2.078-2.258a1 1 0 0 0-.31-1.582L20.38 5.383a.987.987 0 0 0-.295-.086z"/></svg>