<svg xmlns="http://www.w3.org/2000/svg" width="64" height="64" viewBox="0 0 64 64"><path d="m55.213 38.221 1.901 8.28-8.121 2.493-2.493 8.122-8.28-1.901L32 61l-6.22-5.787-8.28 1.901-2.493-8.121-8.122-2.494 1.901-8.28L3 32l5.787-6.22-1.902-8.28 8.121-2.493L17.5 6.885l8.28 1.902L32 3l6.22 5.787 8.28-1.901 2.493 8.121 8.122 2.493-1.902 8.28L61 32l-5.787 6.221zM18.793 38c2.423 0 3.951-1.073 3.951-3.431 0-1.821-1.35-2.813-3.317-3.87-1.236-.667-1.967-1.024-1.967-1.723 0-.504.65-.829 1.593-.829 1.106 0 1.838.26 2.602.894l.602-2.146c-.863-.651-1.953-.895-3.188-.895-1.918 0-3.675 1.073-3.675 3.057 0 2.277 2.081 2.911 3.398 3.658 1.057.602 1.772.959 1.772 1.74 0 .878-.536 1.447-1.707 1.447-1.025 0-2-.439-2.796-1.041l-.813 2.033c.959.715 2.358 1.106 3.545 1.106zm8.045-11.838-3.447 11.675h2.26l.601-2.179h3.822l.617 2.179h2.261l-3.447-11.675h-2.667zm1.301 2.7 1.366 4.732h-2.7l1.334-4.732zm5.882 8.975h6.781v-2.065h-4.683v-9.61h-2.097v11.675zm8.045 0h6.44v-2.065h-4.342v-2.894h2.699v-2.065h-2.699v-2.585h4.342v-2.065h-6.44v11.674z"/></svg>