<svg xmlns="http://www.w3.org/2000/svg" width="24" height="24" viewBox="0 0 24 24"><path d="M19.75 4.042c0-.739-.288-1.447-.8-1.969A2.728 2.728 0 0 0 17 1.25H7c-.731 0-1.433.295-1.95.823-.512.522-.8 1.23-.8 1.969v16.937c0 .692.398 1.318 1.013 1.606.625.294 1.36.19 1.882-.266l4.698-4.112a.238.238 0 0 1 .314 0l4.698 4.112c.522.456 1.257.56 1.882.266a1.771 1.771 0 0 0 1.013-1.606V4.042Zm-1.5 0v16.937a.273.273 0 0 1-.151.249.236.236 0 0 1-.256-.038l-4.698-4.111a1.731 1.731 0 0 0-2.29 0L6.157 21.19a.236.236 0 0 1-.256.038.273.273 0 0 1-.151-.249V4.042c0-.345.133-.676.372-.919.233-.238.548-.373.878-.373h10c.33 0 .645.135.878.373.239.243.372.574.372.919Z"/></svg>